<?xml version="1.0" encoding="UTF-8" standalone="no"?>
<!-- Created with Inkscape (http://www.inkscape.org/) -->

<svg
   width="1584"
   height="396"
   viewBox="0 0 132 33"
   version="1.1"
   id="svg1"
   xml:space="preserve"
   inkscape:version="1.4.3 (0d15f75, 2025-12-25)"
   sodipodi:docname="Galois Logo Drawing.svg"
   inkscape:export-filename="Galois Logo linkedin cover 2.png"
   inkscape:export-xdpi="96"
   inkscape:export-ydpi="96"
   xmlns:inkscape="http://www.inkscape.org/namespaces/inkscape"
   xmlns:sodipodi="http://sodipodi.sourceforge.net/DTD/sodipodi-0.dtd"
   xmlns="http://www.w3.org/2000/svg"
   xmlns:svg="http://www.w3.org/2000/svg"><sodipodi:namedview
     id="namedview1"
     pagecolor="#ffffff"
     bordercolor="#000000"
     borderopacity="0.25"
     inkscape:showpageshadow="2"
     inkscape:pageopacity="0.0"
     inkscape:pagecheckerboard="0"
     inkscape:deskcolor="#d1d1d1"
     inkscape:document-units="px"
     inkscape:zoom="1"
     inkscape:cx="609"
     inkscape:cy="196"
     inkscape:window-width="1920"
     inkscape:window-height="986"
     inkscape:window-x="-11"
     inkscape:window-y="-11"
     inkscape:window-maximized="1"
     inkscape:current-layer="g10"
     inkscape:lockguides="false"
     showguides="true"
     inkscape:clip-to-page="false"><inkscape:page
       x="0"
       y="0"
       width="132"
       height="33"
       id="page3"
       margin="0"
       bleed="0" /></sodipodi:namedview><defs
     id="defs1"><inkscape:perspective
       sodipodi:type="inkscape:persp3d"
       inkscape:vp_x="0 : 16.5 : 1"
       inkscape:vp_y="0 : 1000 : 0"
       inkscape:vp_z="132 : 16.5 : 1"
       inkscape:persp3d-origin="66 : 11 : 1"
       id="perspective4" /></defs><g
     inkscape:label="Layer 1"
     inkscape:groupmode="layer"
     id="layer1"
     transform="translate(47.572921,-88.79147)"><g
       id="g10"
       transform="matrix(0.03527778,0,0,-0.03527778,16.114757,139.83785)"
       inkscape:groupmode="layer"><g
         id="g4"
         transform="translate(747.47599,-117.98058)"><path
           d="m -1566.4489,1283.977 5.207,-52.09 c 0.238,-2.395 0.359,-4.305 0.359,-5.742 0,-3.715 -1.609,-5.567 -4.828,-5.567 -2.98,0 -5.48,2.094 -7.508,6.285 -9.347,19.274 -21.652,34.957 -36.922,47.051 -15.269,12.094 -32.847,18.141 -52.726,18.141 -25.633,0 -45.668,-10.719 -60.098,-32.149 -14.433,-21.433 -21.648,-46.758 -21.648,-75.968 0,-32.575 7.992,-59.239 23.976,-80.016 15.985,-20.77 34.813,-31.16 56.485,-31.16 9.218,0 18.59,2.129 28.105,6.375 9.52,4.254 15.625,8.804 18.32,13.652 2.692,4.848 4.043,11.82 4.043,20.922 0,20.117 -0.812,32.656 -2.437,37.629 -1.625,4.965 -4.301,8.41 -8.027,10.328 -3.731,1.914 -11.309,3.531 -22.731,4.848 -4.453,0.476 -6.68,2.211 -6.68,5.211 0,3.468 2.102,5.207 6.297,5.207 h 27.16 l 82.918,1.793 c 3.715,0 5.575,-1.555 5.575,-4.668 0,-1.797 -0.719,-3.028 -2.153,-3.684 -1.437,-0.656 -6.468,-1.887 -15.09,-3.68 -6.464,-1.433 -10.593,-3.586 -12.39,-6.453 -1.797,-2.867 -3.176,-20.902 -4.129,-54.105 -0.242,-7.407 -0.481,-11.555 -0.719,-12.453 -0.242,-0.899 -7.336,-4.965 -21.281,-12.211 -13.949,-7.243 -28.32,-12.633 -43.106,-16.164 -14.789,-3.532 -29.488,-5.297 -44.093,-5.297 -24.668,0 -46.696,4.847 -66.094,14.551 -19.395,9.695 -35.02,23.375 -46.875,41.035 -11.852,17.66 -17.781,38.703 -17.781,63.129 0,34.484 11.883,64.269 35.648,89.351 23.77,25.086 56.309,37.629 97.613,37.629 14.61,0 27.813,-1.769 39.606,-5.301 11.793,-3.531 25.172,-8.593 40.141,-15.176 2.988,-1.32 5.566,-1.972 7.722,-1.972 2.395,0 4.25,1.73 5.57,5.207 1.672,4.547 3.887,6.828 6.645,6.828 3.23,0 5.207,-3.773 5.926,-11.316"
           style="fill:#2e807a;fill-opacity:1;fill-rule:nonzero;stroke:none"
           id="path14" /><path
           d="m -1416.7539,1245.898 -31.187,-80.281 63.504,0.903 c -3.348,9.394 -8.493,22.273 -15.426,38.644 -7.547,17.707 -13.176,31.281 -16.891,40.734 z m 12.68,62.68 h 12.258 c 15.793,-34.242 38.101,-88.121 66.937,-161.637 13.281,-33.765 22.438,-54.238 27.461,-61.418 5.028,-7.179 12.998,-11.55 23.898,-13.121 3.59,-0.48 5.39,-2.035 5.39,-4.668 0,-3.711 -2.34,-5.566 -7.01,-5.566 -2.51,0 -9.04,0.422 -19.57,1.254 -12.458,1.078 -22.935,1.621 -31.435,1.621 -8.261,0 -19.035,-0.477 -32.328,-1.438 -9.937,-0.718 -16.461,-1.078 -19.578,-1.078 -5.504,0 -8.261,1.735 -8.261,5.207 0,2.633 1.917,4.133 5.75,4.493 14.726,1.32 22.089,7.113 22.089,17.367 0,4.824 -2.148,13.648 -6.449,26.48 -4.301,12.828 -8.898,24.492 -13.793,34.996 -7.805,0.118 -13.863,0.18 -18.187,0.18 -24.125,0 -42.914,-0.062 -56.36,-0.18 -10.328,-28.257 -15.484,-46.972 -15.484,-56.144 0,-6.555 2.574,-11.645 7.723,-15.281 5.144,-3.633 10.711,-5.75 16.703,-6.34 4.55,-0.481 6.824,-2.336 6.824,-5.571 0,-3.234 -2.457,-4.847 -7.363,-4.847 -1.918,0 -6.946,0.297 -15.086,0.894 -10.539,0.84 -18.2,1.262 -22.989,1.262 -9.461,0 -18.441,-0.598 -26.937,-1.797 -2.16,-0.359 -3.957,-0.539 -5.391,-0.539 -4.433,0 -6.644,1.793 -6.644,5.387 0,2.633 1.433,4.371 4.308,5.211 7.184,2.023 12.813,4.527 16.883,7.504 4.07,2.976 8.469,8.695 13.199,17.16 4.731,8.461 10.395,22.031 16.996,40.711 14.887,41.902 37.04,98.539 66.446,169.898"
           style="fill:#2e807a;fill-opacity:1;fill-rule:nonzero;stroke:none"
           id="path16" /><path
           d="m -1053.6899,1062.707 c -29.94,1.555 -76.51,2.336 -139.73,2.336 -22.03,0 -39.93,-0.66 -53.7,-1.98 -3.35,-0.239 -5.81,-0.356 -7.36,-0.356 -4.55,0 -6.83,1.793 -6.83,5.387 0,1.676 0.6,2.844 1.8,3.504 1.19,0.656 4.13,1.347 8.8,2.066 7.42,1.078 13.11,3.266 17.06,6.566 3.95,3.297 6.73,8.211 8.35,14.75 1.62,6.536 2.54,23.208 2.79,50.008 0.23,26.809 0.36,58.68 0.36,95.617 0,14.75 -1.08,25.454 -3.24,32.114 -2.15,6.652 -5.24,11.508 -9.25,14.57 -4.01,3.059 -9.67,4.766 -16.97,5.125 -5.15,0.238 -7.72,2.156 -7.72,5.75 0,3.59 2.93,5.387 8.8,5.387 l 59.63,-1.797 c 9.21,0 22.09,0.469 38.61,1.398 5.98,0.266 10.06,0.399 12.21,0.399 5.03,0 7.55,-1.738 7.55,-5.211 0,-1.914 -0.81,-3.262 -2.43,-4.039 -1.62,-0.778 -5.66,-1.649 -12.12,-2.61 -8.03,-1.074 -13.68,-3.117 -16.97,-6.113 -3.3,-2.996 -5.52,-8.219 -6.65,-15.652 -1.14,-7.438 -1.71,-24.106 -1.71,-50.012 v -109.199 c 0.12,-16.789 1.62,-26.774 4.49,-29.953 2.88,-3.176 8.33,-4.766 16.36,-4.766 19.64,0 34.26,1.527 43.84,4.582 9.58,3.051 18.72,8.586 27.4,16.61 8.69,8.019 18,21.492 27.94,40.414 2.03,3.828 4.11,5.742 6.26,5.742 3.21,0 4.82,-1.735 4.82,-5.207 0,-7.785 -4.13,-32.93 -12.39,-75.43"
           style="fill:#2e807a;fill-opacity:1;fill-rule:nonzero;stroke:none"
           id="path18" /><path
           d="m -728.60986,1292.414 c 8.59,-0.695 14.47,-2.476 17.49,-5.418 3.09,-2.863 5.26,-10.527 6.58,-23.066 1.31,-12.461 1.93,-37.231 1.93,-74.227 0,-5.305 -0.01,-10.316 -0.02,-15.187 9.02,2.441 18.53,3.754 28.23,3.754 7.86,0 15.32,-1.618 22.29,-4.403 -0.12,9.899 -0.19,20.508 -0.19,32.016 0,14.703 0.16,27.09 0.47,37.074 0.46,12.383 1.16,21.129 2.17,26.316 1.7,9.286 4.17,15.247 7.35,17.879 3.17,2.555 9.52,4.332 18.96,5.262 4.18,0.465 6.27,2.168 6.27,5.031 0,3.25 -2.32,4.879 -7.04,4.879 l -55.11,-1.472 c -5.88,0 -13.78,0.234 -23.69,0.773 -13.08,0.699 -21.67,1.008 -25.85,1.008 -4.49,0 -6.66,-1.547 -6.66,-4.645 0,-3.328 2.25,-5.187 6.82,-5.574"
           style="fill:#2e807a;fill-opacity:1;fill-rule:nonzero;stroke:none"
           id="path20" /><path
           d="m -458.67986,1294.02 c 1.56,1.535 3.12,3.898 4.68,7.089 1.79,3.782 3.82,5.676 6.1,5.676 3.23,0 5.21,-2.637 5.93,-7.902 l 6.28,-49.211 0.72,-5.926 c 0,-3.238 -1.62,-4.851 -4.85,-4.851 -2.39,0 -4.13,0.57 -5.2,1.71 -1.08,1.141 -3.12,4.836 -6.11,11.083 -5.15,10.691 -13.65,20.3 -25.51,28.832 -11.85,8.527 -23.76,12.793 -35.74,12.793 -11.61,0 -21.28,-3.333 -29,-9.997 -7.72,-6.66 -11.59,-15.035 -11.59,-25.121 0,-8.043 3.6,-15.308 10.78,-21.789 7.19,-6.484 21.02,-12.601 41.49,-18.359 32.08,-9.117 53.82,-20.379 65.19,-33.785 11.26,-13.407 16.88,-28.309 16.88,-44.711 0,-16.758 -4.13,-30.821 -12.39,-42.192 -8.26,-11.375 -18.14,-20.32 -29.63,-26.843 -11.5,-6.52 -26.22,-9.786 -44.18,-9.786 -10.18,0 -20.72,1.469 -31.61,4.403 -10.9,2.93 -22.15,7.332 -33.77,13.199 -2.39,-2.758 -4.43,-6.348 -6.1,-10.777 -1.92,-4.907 -4.31,-7.364 -7.19,-7.364 -2.99,0 -4.79,3.231 -5.39,9.7 l -5.2,65.195 c -0.25,2.875 -0.36,4.668 -0.36,5.387 0,3.472 1.79,5.207 5.39,5.207 2.63,0 5.14,-2.992 7.54,-8.981 7.3,-17.957 17.24,-32.926 29.81,-44.894 12.45,-11.981 27,-17.961 43.65,-17.961 14.12,0 25.53,4.187 34.21,12.57 8.68,8.379 13.02,17.899 13.02,28.555 0,10.656 -4.01,19.636 -12.03,26.941 -8.03,7.301 -22.45,14.309 -43.29,21.012 -20.23,6.586 -35.29,12.871 -45.17,18.859 -9.87,5.989 -17.78,14.219 -23.7,24.696 -5.93,10.476 -8.89,21.105 -8.89,31.878 0,18.797 7.27,34.782 21.82,47.954 14.55,13.168 34.33,19.757 59.35,19.757 13.53,0 31.55,-4.019 54.06,-12.046"
           style="fill:#2e807a;fill-opacity:1;fill-rule:nonzero;stroke:none"
           id="path22" /><path
           d="m -1243.7199,760.19897 c -8.51,0 -14.55,2.481 -18.27,7.281 -3.63,4.879 -6.03,17.649 -7.27,38.239 -1.16,20.66 -1.78,49.84 -1.78,87.691 0,32.899 0.85,54.028 2.63,63.317 1.7,9.367 4.18,15.324 7.35,17.878 3.18,2.555 9.52,4.336 18.97,5.262 4.18,0.465 6.27,2.168 6.27,5.031 0,3.254 -2.33,4.879 -6.97,4.879 l -55.187,-1.472 c -5.882,0 -13.777,0.308 -23.683,0.851 -13.082,0.621 -21.676,1.008 -25.856,1.008 -4.41,0 -6.656,-1.625 -6.656,-4.723 0,-3.328 2.246,-5.183 6.813,-5.574 8.589,-0.695 14.472,-2.476 17.492,-5.34 3.097,-2.863 5.262,-10.601 6.578,-23.14 1.316,-12.461 2.016,-37.227 2.016,-74.227 0,-35.07 -0.387,-60.922 -1.086,-77.558 -0.774,-16.641 -2.864,-27.172 -6.426,-31.582 -3.481,-4.329 -10.371,-7.2 -20.512,-8.508 -3.715,-0.473 -5.57,-2.09 -5.57,-4.883 0,-3.399 2.168,-5.18 6.578,-5.18 1.937,0 5.187,0.231 9.754,0.692 8.59,1.089 21.98,1.629 40.015,1.629 8.28,0 23.69,-0.782 46.21,-2.321 3.4,-0.078 6.04,-0.16 7.89,-0.16 6.35,0 9.52,2.09 9.52,6.27 0,3.101 -2.94,4.64 -8.82,4.64"
           style="fill:#f0471d;fill-opacity:1;fill-rule:nonzero;stroke:none"
           id="path24" /><path
           d="m -958.33986,990.85897 c -2.48,0 -5.57,-0.152 -9.13,-0.543 -8.67,-0.847 -21.21,-1.234 -37.78004,-1.234 -13.15,0 -23.14,0.309 -29.95,1.082 -3.64,0.465 -6.5,0.695 -8.82,0.695 -4.03,0 -6.12,-1.777 -6.12,-5.183 0,-3.254 2.25,-5.11 6.66,-5.574 8.28,-0.774 15.48,-3.172 21.75,-7.352 6.19,-4.258 10.29,-9.91 12.23,-17.184 1.85,-7.199 2.86,-19.199 2.86,-35.918 l -0.23,-71.046 c 0,-2.403 0,-7.672 -0.16,-15.793 -38.31,39.39 -86.14,91.722 -143.5,156.968 -13.39,0.387 -27.86,0.539 -43.42,0.539 -7.2,0 -12.15,0.079 -14.94,0.313 -2.24,0.309 -4.02,0.387 -5.19,0.387 -4.95,0 -7.35,-1.934 -7.35,-5.883 0,-2.942 2.32,-4.801 6.97,-5.574 11.3,-2.168 20.9,-8.825 28.87,-19.969 7.89,-11.145 12.23,-23.61 12.92,-37.391 0.62,-13.769 0.93,-51.539 0.93,-113.308 0,-14.243 -1.7,-25.469 -5.11,-33.75 -3.4,-8.282 -11.84,-12.922 -25.38,-14.012 -7.59,-0.617 -11.3,-2.32 -11.3,-5.18 0,-3.949 2.32,-5.961 6.96,-5.961 2.17,0 5.73,0.313 10.76,0.934 8.05,1.078 20.98,1.617 38.86,1.617 11.07,0 20.28,-0.539 27.47,-1.469 4.18,-0.461 7.67,-0.699 10.38,-0.699 4.33,0 6.5,1.777 6.5,5.348 0,3.172 -2.09,4.722 -6.12,4.722 -6.34,0 -13.46,2.239 -21.28,6.731 -7.82,4.488 -12.54,11.687 -14.01,21.75 -1.47,9.976 -2.25,23.758 -2.25,41.328 0,57.051 0.08,87.16 0.39,90.41 11.92,-14.551 32.74,-38.469 62.39,-71.75 29.64,-33.359 51.93,-57.98 66.95,-73.84 15.09,-15.871 23.3,-24.148 24.69,-24.929 1.47,-0.692 2.71004,-1 3.79004,-1 4.1,0 6.12,3.25 6.12,9.828 l 1.24,76.472 -0.86,101.547 c 0,16.489 3.25,27.555 9.76,33.207 6.58,5.649 13.54,8.825 21.13,9.52 6.11,0.617 9.13,2.555 9.13,5.961 0,3.406 -2.24,5.183 -6.81,5.183"
           style="fill:#f0471d;fill-opacity:1;fill-rule:nonzero;stroke:none"
           id="path26" /><path
           d="m -774.58986,871.73797 c -11.38,13.391 -33.13,24.692 -65.25,33.75 -20.43,5.801 -34.29,11.922 -41.49,18.422 -7.12,6.422 -10.76,13.699 -10.76,21.746 0,10.063 3.87,18.5 11.61,25.157 7.74,6.656 17.42,9.984 29.03,9.984 11.92,0 23.84,-4.254 35.68,-12.77 11.92,-8.593 20.36,-18.191 25.54,-28.871 3.02,-6.269 5.04,-9.906 6.12,-11.066 1.08,-1.16 2.79,-1.711 5.18,-1.711 3.26,0 4.88,1.633 4.88,4.801 l -0.77,5.965 -6.27,49.226 c -0.7,5.262 -2.71,7.895 -5.89,7.895 -2.32,0 -4.33,-1.934 -6.11,-5.653 -1.55,-3.25 -3.1,-5.57 -4.72,-7.117 -22.45,8.047 -40.48,12.074 -54.03,12.074 -25,0 -44.81,-6.582 -59.36,-19.816 -14.56,-13.156 -21.83,-29.102 -21.83,-47.914 0,-10.758 2.94,-21.442 8.9,-31.891 5.96,-10.449 13.85,-18.73 23.68,-24.687 9.91,-5.961 24.93,-12.301 45.21,-18.883 20.82,-6.66 35.21,-13.699 43.26,-20.981 8.05,-7.347 12.08,-16.328 12.08,-26.929 0,-10.688 -4.41,-20.207 -13.08,-28.571 -8.67,-8.429 -20.05,-12.609 -34.21,-12.609 -16.64,0 -31.2,6.043 -43.66,17.961 -12.54,11.988 -22.44,26.93 -29.8,44.891 -2.4,6.039 -4.87,8.98 -7.5,8.98 -3.64,0 -5.42,-1.711 -5.42,-5.191 0,-0.7 0.15,-2.481 0.38,-5.34 l 5.19,-65.25 c 0.62,-6.418 2.4,-9.668 5.42,-9.668 2.86,0 5.26,2.469 7.2,7.348 1.62,4.41 3.63,8.05 6.03,10.761 11.69,-5.812 22.91,-10.222 33.83,-13.16 10.83,-2.941 21.44,-4.41 31.58,-4.41 17.95,0 32.66,3.25 44.19,9.75 11.46,6.578 21.37,15.48 29.65,26.859 8.2,11.379 12.38,25.461 12.38,42.18 0,16.41 -5.65,31.352 -16.87,44.738"
           style="fill:#f0471d;fill-opacity:1;fill-rule:nonzero;stroke:none"
           id="path28" /><path
           d="m -623.18986,760.19897 c -8.52,0 -14.56,2.481 -18.27,7.281 -3.64,4.879 -6.04,17.649 -7.28,38.239 -0.38,7.66 -0.77,16.332 -1.08,26.312 v 0.539 c -0.46,16.961 -0.7,37.16 -0.7,60.84 0,10.988 0.08,20.672 0.31,28.949 l -0.31,66.645 -26.93,-0.699 c -5.88,0 -13.78,0.308 -23.69,0.851 h -0.69 l 0.15,-52.941 v -0.156 c 0.54,-13.778 0.85,-33.438 0.85,-58.899 0,-23.379 -0.15,-42.73 -0.46,-57.898 -0.08,-7.582 -0.31,-14.16 -0.54,-19.66 -0.78,-16.641 -2.87,-27.172 -6.43,-31.582 -3.48,-4.329 -10.37,-7.2 -20.59,-8.508 -3.63,-0.473 -5.49,-2.09 -5.49,-4.883 0,-3.399 2.17,-5.18 6.58,-5.18 1.93,0 5.18,0.231 9.75,0.692 8.59,1.089 21.98,1.629 40.02,1.629 8.28,0 23.68,-0.782 46.2,-2.321 3.41,-0.078 6.04,-0.16 7.9,-0.16 6.35,0 9.52,2.09 9.52,6.27 0,3.101 -2.94,4.64 -8.82,4.64"
           style="fill:#2e807a;fill-opacity:1;fill-rule:nonzero;stroke:none"
           id="path30" /><path
           d="m -320.24986,866.17197 -82.89,-1.781 h -27.17 c -4.18,0 -6.27,-1.711 -6.27,-5.192 0,-3.019 2.17,-4.719 6.66,-5.187 11.45,-1.313 18.96,-2.942 22.75,-4.871 3.72,-1.942 6.35,-5.34 7.98,-10.301 1.62,-5.031 2.47,-17.57 2.47,-37.692 0,-9.058 -1.39,-16.019 -4.02,-20.898 -2.71,-4.801 -8.83,-9.359 -18.35,-13.621 -9.52,-4.258 -18.88,-6.43 -28.09,-6.43 -21.68,0 -40.48,10.449 -56.51,31.199 -15.94,20.743 -23.99,47.442 -23.99,80.032 0,29.179 7.27,54.492 21.67,75.929 14.4,21.442 34.44,32.2 60.07,32.2 19.89,0 37.46,-6.114 52.78,-18.188 15.25,-12.074 27.56,-27.789 36.92,-47.062 2.02,-4.18 4.49,-6.27 7.51,-6.27 3.17,0 4.8,1.859 4.8,5.57 0,1.473 -0.16,3.332 -0.39,5.731 l -5.18,52.094 c -0.7,7.586 -2.71,11.3 -5.89,11.3 -2.78,0 -5.03,-2.246 -6.65,-6.812 -1.32,-3.484 -3.18,-5.188 -5.57,-5.188 -2.17,0 -4.73,0.621 -7.74,1.938 -14.94,6.578 -28.33,11.687 -40.18,15.246 -11.76,3.484 -25,5.266 -39.55,5.266 -41.33,0 -73.84,-12.539 -97.6,-37.618 -23.76,-25.078 -35.68,-54.875 -35.68,-89.394 0,-24.383 5.96,-45.442 17.8,-63.09 11.84,-17.641 27.48,-31.344 46.83,-41.023 19.42,-9.75 41.48,-14.547 66.1,-14.547 14.63,0 29.33,1.777 44.12,5.258 14.78,3.562 29.18,8.902 43.11,16.179 13.93,7.281 21.05,11.301 21.28,12.231 0.24,0.851 0.47,5.031 0.7,12.461 0.93,33.211 2.32,51.238 4.1,54.097 1.86,2.871 5.96,4.961 12.46,6.434 8.6,1.777 13.63,3.019 15.02,3.707 1.47,0.621 2.17,1.859 2.17,3.641 0,3.101 -1.86,4.652 -5.58,4.652"
           style="fill:#f0471d;fill-opacity:1;fill-rule:nonzero;stroke:none"
           id="path32" /><path
           d="m -59.709821,965.62897 c 1.39,4.488 3.87,7.816 7.35,9.984 3.56,2.09 9.52,3.25 17.88,3.407 5.19,0.074 7.74,2.011 7.74,5.726 0,3.328 -2.24,5.031 -6.81,5.031 -1.24,0 -3.25,-0.156 -6.12,-0.386 -15.32,-0.93 -33.12,-1.395 -53.4,-1.395 -1.71,0 -9.759999,0.309 -24.229999,0.93 -11.22,0.543 -19.66,0.851 -25.15,0.851 -4.73,0 -7.13,-1.859 -7.13,-5.574 0,-3.48 4.03,-5.418 12.23,-5.726 9.91,-0.387 16.41,-3.793 19.51,-10.219 3.17,-6.5 4.72,-17.336 4.72,-32.66 l -1.63,-54.496 c -16.17,-1.543 -32.97,-2.321 -50.46,-2.321 -17.65,0 -34.06,0.778 -49.23,2.321 l -0.38,51.089 c 0,16.176 0.77,27.09 2.16,32.739 1.47,5.652 3.64,9.445 6.66,11.379 3.02,1.933 8.44,2.863 16.33,2.863 4.8,0 7.2,1.781 7.2,5.418 0,3.715 -2.94,5.574 -8.83,5.574 l -50.69,-1.859 c -8.67,0 -16.41,0.234 -23.22004,0.777 -12.23,0.926 -20.9,1.391 -26.09,1.391 -4.1,0 -6.11,-1.782 -6.11,-5.34 0,-2.168 0.62,-3.637 1.78,-4.258 1.24,-0.695 4.18,-1.316 8.98,-2.09 6.27,-0.695 10.83,-2.398 13.85,-5.187 3.02,-2.707 5.11,-8.125 6.35,-16.02 1.31,-7.973 1.93,-20.82 1.93,-38.547 0,-3.562 -0.15,-24.922 -0.46,-64.011 -0.31,-39.161 -1.24,-62.848 -2.87,-71.211 -1.62,-8.278 -4.1,-13.93 -7.35,-16.95 -3.33,-2.937 -9.6,-4.949 -18.81,-5.879 -4.87,-0.621 -7.35,-2.32 -7.35,-5.261 0,-3.571 3.1,-5.348 9.37,-5.348 2.47,0 8.05,0.238 16.71,0.777 12.23,0.704 21.99004,1 29.34004,1 15.56,0 30.5,-0.609 44.74,-2.007 3.48,-0.309 6.11,-0.461 7.97,-0.461 4.88,0 7.35,1.621 7.35,4.949 0,3.25 -2.32,5.031 -6.96,5.262 -9.76,0.468 -16.1,3.41 -19.2,8.75 -3.02,5.418 -4.57,15.089 -4.57,28.949 0,19.5 0.7,41.332 2.02,65.398 10.76,1.16 25.38,1.782 43.96,1.782 16.18,0 34.75,-0.309 55.73,-0.93 0.23,-6.649 0.31,-11.68 0.31,-15.09 0,-32.199 -0.85,-53.641 -2.63,-64.469 -1.86,-10.761 -4.65,-17.652 -8.59,-20.672 -3.95,-2.937 -10.22,-4.488 -18.81,-4.488 -3.56,0 -5.34,-1.551 -5.34,-4.641 0,-3.492 2.16,-5.191 6.42,-5.191 4.8,0 15.33,0.543 31.58,1.633 8.52,0.457 14.239999,0.687 17.259999,0.687 l 49.62,-1.777 c 4.79,-0.383 7.89,-0.543 9.36,-0.543 4.34,0 6.43,1.551 6.43,4.641 0,3.64 -2.79,5.422 -8.44,5.422 -9.06,0 -15.48,1.859 -19.27,5.578 -3.8,3.711 -5.96,10.289 -6.51,19.73 -0.54,9.52 -0.77,35.301 -0.77,77.481 0,10.218 0.39,28.871 1.24,56.039 0.85,27.09 1.93,42.957 3.33,47.449"
           style="fill:#f0471d;fill-opacity:1;fill-rule:nonzero;stroke:none"
           id="path34" /><path
           d="m 244.09008,961.05897 c -1.32,15.328 -2.4,25.39 -3.25,30.343 -5.65,0.078 -9.6,0.157 -12,0.157 -6.27,0 -14.24,-0.235 -23.92,-0.7 -27.24,-1.316 -52.17,-2.011 -74.77,-2.011 -29.87,0 -75.850001,0.851 -138.0000006,2.554 -1.94,-9.754 -3.6400004,-21.906 -5.1900004,-36.535 -1.47,-14.703 -2.24,-22.601 -2.24,-23.687 0,-3.559 2.09,-5.34 6.1100004,-5.34 2.63,0 4.95,2.25 7.04,6.812 5.11,11.457 11.77,20.903 19.8999996,28.098 8.12,7.277 16.64,11.688 25.46,13.313 8.75,1.625 23.07,2.402 42.8,2.402 3.1,-31.969 4.65,-73.375 4.65,-124.305 0,-32.199 -0.62,-53.101 -1.86,-62.699 -1.24,-9.672 -4.57,-16.723 -9.98,-21.129 -5.35,-4.41 -13.4,-6.66 -24.08,-6.66 -4.56,0 -6.81,-1.703 -6.81,-5.184 0,-2.398 1.4,-3.949 4.18,-4.488 5.57,-0.23 9.29,-0.391 11.15,-0.391 l 22.6,0.93 c 6.27,0.231 23.920001,0.313 52.860001,0.313 l 37.23,-0.852 5.04,-0.23 c 4.1,0 6.11,1.699 6.11,5.031 0,3.019 -2.32,4.719 -6.97,5.031 -13.77,1.008 -22.52,2.707 -26.24,5.258 -3.71,2.48 -6.34,6.43 -7.89,11.851 -1.55,5.34 -2.86,21.129 -3.95,47.289 -1.08,26.161 -1.62,53.329 -1.62,81.418 0,27.563 1,50.473 2.86,68.817 21.67,0 37.23,-1.164 46.67,-3.406 9.37,-2.246 17.65,-6.891 24.77,-13.856 7.12,-6.89 13.01,-15.246 17.57,-24.922 2.71,-5.73 5.57,-8.59 8.59,-8.59 3.87,0 5.89,2.321 5.89,6.961 l -2.71,28.407"
           style="fill:#f0471d;fill-opacity:1;fill-rule:nonzero;stroke:none"
           id="path36" /><path
           d="m 424.59018,871.73797 c -11.38,13.391 -33.13,24.692 -65.18,33.75 -20.51,5.801 -34.28,11.922 -41.48,18.422 -7.2,6.422 -10.84,13.699 -10.84,21.746 0,10.063 3.87,18.5 11.61,25.157 7.74,6.656 17.42,9.984 29.03,9.984 11.99,0 23.84,-4.254 35.76,-12.77 11.84,-8.593 20.35,-18.191 25.46,-28.871 3.02,-6.269 5.03,-9.906 6.12,-11.066 1.08,-1.16 2.78,-1.711 5.18,-1.711 3.25,0 4.88,1.633 4.88,4.801 l -0.7,5.965 -6.35,49.226 c -0.69,5.262 -2.63,7.895 -5.88,7.895 -2.32,0 -4.33,-1.934 -6.11,-5.653 -1.55,-3.25 -3.1,-5.57 -4.65,-7.117 -22.52,8.047 -40.55,12.074 -54.1,12.074 -25,0 -44.82,-6.582 -59.37,-19.816 -14.55,-13.156 -21.82,-29.102 -21.82,-47.914 0,-10.758 3.01,-21.442 8.9,-31.891 5.96,-10.449 13.85,-18.73 23.76,-24.687 9.83,-5.961 24.92,-12.301 45.12,-18.883 20.83,-6.66 35.3,-13.699 43.27,-20.981 8.05,-7.347 12.08,-16.328 12.08,-26.929 0,-10.688 -4.34,-20.207 -13.01,-28.571 -8.74,-8.429 -20.12,-12.609 -34.21,-12.609 -16.64,0 -31.19,6.043 -43.65,17.961 -12.62,11.988 -22.53,26.93 -29.88,44.891 -2.32,6.039 -4.88,8.98 -7.51,8.98 -3.56,0 -5.42,-1.711 -5.42,-5.191 0,-0.7 0.16,-2.481 0.39,-5.34 l 5.19,-65.25 c 0.62,-6.418 2.4,-9.668 5.42,-9.668 2.86,0 5.26,2.469 7.19,7.348 1.63,4.41 3.72,8.05 6.12,10.761 11.61,-5.812 22.83,-10.222 33.75,-13.16 10.91,-2.941 21.44,-4.41 31.57,-4.41 17.96,0 32.75,3.25 44.2,9.75 11.53,6.578 21.36,15.48 29.65,26.859 8.28,11.379 12.38,25.461 12.38,42.18 0,16.41 -5.65,31.352 -16.87,44.738"
           style="fill:#f0471d;fill-opacity:1;fill-rule:nonzero;stroke:none"
           id="path38" /><path
           d="m -890.81986,1308.555 c -68.81,0 -124.79004,-55.981 -124.79004,-124.785 0,-68.809 55.98004,-124.786 124.79004,-124.786 68.81,0 124.79,55.977 124.79,124.786 0,68.804 -55.98,124.785 -124.79,124.785 z m 0,-250.219 c -69.16,0 -125.43004,56.269 -125.43004,125.434 0,69.164 56.27004,125.429 125.43004,125.429 69.16,0 125.43,-56.265 125.43,-125.429 0,-69.165 -56.27,-125.434 -125.43,-125.434"
           style="fill:#2e807a;fill-opacity:1;fill-rule:nonzero;stroke:none"
           id="path54" /><path
           d="m -890.81986,1307.164 c -68.04,0 -123.39004,-55.355 -123.39004,-123.394 0,-68.04 55.35004,-123.395 123.39004,-123.395 68.04,0 123.39,55.355 123.39,123.395 0,68.039 -55.35,123.394 -123.39,123.394 z m 0,-250.219 c -69.93,0 -126.82004,56.895 -126.82004,126.825 0,69.929 56.89004,126.82 126.82004,126.82 69.93,0 126.82,-56.891 126.82,-126.82 0,-69.93 -56.89,-126.825 -126.82,-126.825"
           style="fill:#2e807a;fill-opacity:1;fill-rule:nonzero;stroke:none"
           id="path56" /><path
           d="m -863.24986,1287.719 -86.06,-34.301 -0.26,0.664 86.05,34.301 0.27,-0.664"
           style="fill:#2e807a;fill-opacity:1;fill-rule:nonzero;stroke:none"
           id="path58" /><path
           d="m -950.08986,1251.609 -1.29,3.25 88.64,35.329 1.3,-3.247 -88.65,-35.332"
           style="fill:#2e807a;fill-opacity:1;fill-rule:nonzero;stroke:none"
           id="path60" /><path
           d="m -860.69986,1239.027 -0.71,-0.039 -2.33,49.043 0.71,0.035 2.33,-49.039"
           style="fill:#2e807a;fill-opacity:1;fill-rule:nonzero;stroke:none"
           id="path62" /><path
           d="m -862.72986,1237.523 -2.47,51.836 3.5,0.161 2.46,-51.809 -3.49,-0.188"
           style="fill:#2e807a;fill-opacity:1;fill-rule:nonzero;stroke:none"
           id="path64" /><path
           d="m -796.20986,1264.609 -64.71,-25.929 -0.26,0.656 64.71,25.934 0.26,-0.661"
           style="fill:#2e807a;fill-opacity:1;fill-rule:nonzero;stroke:none"
           id="path66" /><path
           d="m -861.69986,1236.871 -1.29,3.238 67.3,26.977 1.28,-3.25 -67.29,-26.965"
           style="fill:#2e807a;fill-opacity:1;fill-rule:nonzero;stroke:none"
           id="path68" /><path
           d="m -796.45986,1264.605 -67.04,23.106 0.23,0.676 67.04,-23.11 -0.23,-0.672"
           style="fill:#2e807a;fill-opacity:1;fill-rule:nonzero;stroke:none"
           id="path70" /><path
           d="m -795.58986,1262.836 -69.68,24.016 1.14,3.304 69.67,-24.015 -1.13,-3.305"
           style="fill:#2e807a;fill-opacity:1;fill-rule:nonzero;stroke:none"
           id="path72" /><path
           d="m -864.09986,1289.031 -50.67,21.465 0.27,0.656 50.68,-21.464 -0.28,-0.657"
           style="fill:#2e807a;fill-opacity:1;fill-rule:nonzero;stroke:none"
           id="path74" /><path
           d="m -863.35986,1287.211 -53.23,22.547 1.35,3.222 53.24,-22.554 -1.36,-3.215"
           style="fill:#2e807a;fill-opacity:1;fill-rule:nonzero;stroke:none"
           id="path76" /><path
           d="m -950.14986,1254.672 -0.6,0.387 35.82,55.961 0.6,-0.387 -35.82,-55.961"
           style="fill:#2e807a;fill-opacity:1;fill-rule:nonzero;stroke:none"
           id="path78" /><path
           d="m -949.72986,1252.754 -2.95,1.875 37.33,58.312 2.94,-1.89 -37.32,-58.297"
           style="fill:#2e807a;fill-opacity:1;fill-rule:nonzero;stroke:none"
           id="path80" /><path
           d="m -952.24986,1254.516 -19.01,26.558 0.58,0.414 19.02,-26.558 -0.59,-0.414"
           style="fill:#2e807a;fill-opacity:1;fill-rule:nonzero;stroke:none"
           id="path82" /><path
           d="m -952.56986,1252.574 -20.64,28.824 2.85,2.032 20.64,-28.821 -2.85,-2.035"
           style="fill:#2e807a;fill-opacity:1;fill-rule:nonzero;stroke:none"
           id="path84" /><path
           d="m -1010.9099,1225.207 -0.29,0.648 61.61004,28.219 0.3,-0.648 -61.62004,-28.219"
           style="fill:#2e807a;fill-opacity:1;fill-rule:nonzero;stroke:none"
           id="path86" /><path
           d="m -1011.5999,1223.359 -1.45,3.184 64.14004,29.375 1.47,-3.18 -64.16004,-29.379"
           style="fill:#2e807a;fill-opacity:1;fill-rule:nonzero;stroke:none"
           id="path88" /><path
           d="m -958.57986,1157.039 -51.46004,0.781 0.01,0.711 51.46004,-0.777 -0.01,-0.715"
           style="fill:#2e807a;fill-opacity:1;fill-rule:nonzero;stroke:none"
           id="path90" /><path
           d="m -957.21986,1155.629 -54.23004,0.82 0.05,3.496 54.25004,-0.824 -0.07,-3.492"
           style="fill:#2e807a;fill-opacity:1;fill-rule:nonzero;stroke:none"
           id="path92" /><path
           d="m -958.85986,1157.18 -52.48004,68.133 0.57,0.437 52.48004,-68.137 -0.57,-0.433"
           style="fill:#2e807a;fill-opacity:1;fill-rule:nonzero;stroke:none"
           id="path94" /><path
           d="m -959.11986,1155.23 -54.17004,70.333 2.77,2.14 54.18004,-70.344 -2.78,-2.129"
           style="fill:#2e807a;fill-opacity:1;fill-rule:nonzero;stroke:none"
           id="path96" /><path
           d="m -960.07986,1154.457 -0.7,0.078 10.99,99.254 0.7,-0.082 -10.99,-99.25"
           style="fill:#2e807a;fill-opacity:1;fill-rule:nonzero;stroke:none"
           id="path98" /><path
           d="m -958.84986,1152.918 -3.47,0.391 11.3,102.015 3.47,-0.386 -11.3,-102.02"
           style="fill:#2e807a;fill-opacity:1;fill-rule:nonzero;stroke:none"
           id="path100" /><path
           d="m -901.33986,1201.809 -48.36,51.695 0.52,0.488 48.36,-51.691 -0.52,-0.492"
           style="fill:#2e807a;fill-opacity:1;fill-rule:nonzero;stroke:none"
           id="path102" /><path
           d="m -901.40986,1199.84 -50.25,53.726 2.55,2.395 50.25,-53.731 -2.55,-2.39"
           style="fill:#2e807a;fill-opacity:1;fill-rule:nonzero;stroke:none"
           id="path104" /><path
           d="m -900.83986,1201.797 -0.48,0.519 40.03,36.954 0.48,-0.52 -40.03,-36.953"
           style="fill:#2e807a;fill-opacity:1;fill-rule:nonzero;stroke:none"
           id="path106" /><path
           d="m -900.91986,1199.828 -2.37,2.567 42.08,38.839 2.36,-2.566 -42.07,-38.84"
           style="fill:#2e807a;fill-opacity:1;fill-rule:nonzero;stroke:none"
           id="path108" /><path
           d="m -785.61986,1193.813 -75.61,44.886 0.36,0.617 75.61,-44.894 -0.36,-0.609"
           style="fill:#2e807a;fill-opacity:1;fill-rule:nonzero;stroke:none"
           id="path110" /><path
           d="m -785.13986,1191.902 -77.99,46.309 1.77,3.016 78,-46.317 -1.78,-3.008"
           style="fill:#2e807a;fill-opacity:1;fill-rule:nonzero;stroke:none"
           id="path112" /><path
           d="m -840.37986,1112.188 -0.59,0.402 55.23,81.726 0.59,-0.398 -55.23,-81.73"
           style="fill:#2e807a;fill-opacity:1;fill-rule:nonzero;stroke:none"
           id="path114" /><path
           d="m -840.00986,1110.25 -2.89,1.965 56.78,84.031 2.9,-1.953 -56.79,-84.043"
           style="fill:#2e807a;fill-opacity:1;fill-rule:nonzero;stroke:none"
           id="path116" /><path
           d="m -958.34986,1157.125 -0.46,0.543 54.16,46.316 0.46,-0.543 -54.16,-46.316"
           style="fill:#2e807a;fill-opacity:1;fill-rule:nonzero;stroke:none"
           id="path118" /><path
           d="m -958.49986,1155.168 -2.27,2.656 56.27,48.121 2.27,-2.66 -56.27,-48.117"
           style="fill:#2e807a;fill-opacity:1;fill-rule:nonzero;stroke:none"
           id="path120" /><path
           d="m -921.53986,1131.801 -37.24,25.301 0.4,0.589 37.24,-25.304 -0.4,-0.586"
           style="fill:#2e807a;fill-opacity:1;fill-rule:nonzero;stroke:none"
           id="path122" /><path
           d="m -921.16986,1129.867 -39.54,26.863 1.96,2.895 39.54,-26.867 -1.96,-2.891"
           style="fill:#2e807a;fill-opacity:1;fill-rule:nonzero;stroke:none"
           id="path124" /><path
           d="m -920.99986,1132.008 -0.69,0.18 18.37,70.687 0.69,-0.176 -18.37,-70.691"
           style="fill:#2e807a;fill-opacity:1;fill-rule:nonzero;stroke:none"
           id="path126" /><path
           d="m -919.99986,1130.313 -3.38,0.875 19.06,73.378 3.39,-0.863 -19.07,-73.39"
           style="fill:#2e807a;fill-opacity:1;fill-rule:nonzero;stroke:none"
           id="path128" /><path
           d="m -840.75986,1112.043 -80.66,19.707 0.16,0.691 80.67,-19.707 -0.17,-0.691"
           style="fill:#2e807a;fill-opacity:1;fill-rule:nonzero;stroke:none"
           id="path130" /><path
           d="m -839.73986,1110.359 -83.36,20.368 0.82,3.398 83.37,-20.371 -0.83,-3.395"
           style="fill:#2e807a;fill-opacity:1;fill-rule:nonzero;stroke:none"
           id="path132" /><path
           d="m -927.12986,1065.066 -3.36,0.961 7.85,67.887 3.36,-0.961 -7.85,-67.887"
           style="fill:#2e807a;fill-opacity:1;fill-rule:nonzero;stroke:none"
           id="path134" /><path
           d="m -929.40986,1063.148 -0.69,-0.183 -28.82,94.34 0.68,0.183 28.83,-94.34"
           style="fill:#2e807a;fill-opacity:1;fill-rule:nonzero;stroke:none"
           id="path136" /><path
           d="m -931.07986,1061.258 -29.55,97.027 3.37,0.91 29.55,-97.027 -3.37,-0.91"
           style="fill:#2e807a;fill-opacity:1;fill-rule:nonzero;stroke:none"
           id="path138" /><path
           d="m -985.69986,1102.375 -0.64,0.313 26.13,54.289 0.64,-0.313 -26.13,-54.289"
           style="fill:#2e807a;fill-opacity:1;fill-rule:nonzero;stroke:none"
           id="path140" /><path
           d="m -985.04986,1100.516 -3.14,1.519 27.33,56.801 3.15,-1.527 -27.34,-56.793"
           style="fill:#2e807a;fill-opacity:1;fill-rule:nonzero;stroke:none"
           id="path142" /><path
           d="m -839.40986,1111.922 -86.95,-47.047 -1.25,3.262 86.93,47.047 1.27,-3.262"
           style="fill:#2e807a;fill-opacity:1;fill-rule:nonzero;stroke:none"
           id="path144" /><path
           d="m -865.84986,1062.379 -0.62,0.348 26.69,48.277 0.63,-0.344 -26.7,-48.281"
           style="fill:#2e807a;fill-opacity:1;fill-rule:nonzero;stroke:none"
           id="path146" /><path
           d="m -865.29986,1060.488 -3.06,1.692 28.04,50.711 3.06,-1.68 -28.04,-50.723"
           style="fill:#2e807a;fill-opacity:1;fill-rule:nonzero;stroke:none"
           id="path148" /><path
           d="m -810.67986,1087.359 -29.01,23.196 0.45,0.554 29,-23.191 -0.44,-0.559"
           style="fill:#2e807a;fill-opacity:1;fill-rule:nonzero;stroke:none"
           id="path150" /><path
           d="m -810.45986,1085.402 -31.19,24.938 2.19,2.723 31.18,-24.922 -2.18,-2.739"
           style="fill:#2e807a;fill-opacity:1;fill-rule:nonzero;stroke:none"
           id="path152" /><path
           d="m -839.30986,1110.512 -0.31,0.644 66.23,30.778 0.3,-0.649 -66.22,-30.773"
           style="fill:#2e807a;fill-opacity:1;fill-rule:nonzero;stroke:none"
           id="path154" /><path
           d="m -839.99986,1108.66 -1.46,3.172 68.74,31.945 1.48,-3.164 -68.76,-31.953"
           style="fill:#2e807a;fill-opacity:1;fill-rule:nonzero;stroke:none"
           id="path156" /><path
           d="m -773.46986,1142.996 -0.69,-0.156 -11.63,51.199 0.69,0.156 11.63,-51.199"
           style="fill:#2e807a;fill-opacity:1;fill-rule:nonzero;stroke:none"
           id="path158" /><path
           d="m -775.20986,1141.172 -12.25,53.918 3.41,0.773 12.24,-53.914 -3.4,-0.777"
           style="fill:#2e807a;fill-opacity:1;fill-rule:nonzero;stroke:none"
           id="path160" /><path
           d="m -785.08986,1194.18 -0.71,-0.125 -12.4,70.683 0.71,0.125 12.4,-70.683"
           style="fill:#2e807a;fill-opacity:1;fill-rule:nonzero;stroke:none"
           id="path162" /><path
           d="m -786.92986,1192.441 -12.88,73.422 3.45,0.614 12.88,-73.422 -3.45,-0.614"
           style="fill:#2e807a;fill-opacity:1;fill-rule:nonzero;stroke:none"
           id="path164" /><path
           d="m -882.81986,1166.043 -0.68,0.211 23.42,73.441 0.68,-0.218 -23.42,-73.434"
           style="fill:#2e807a;fill-opacity:1;fill-rule:nonzero;stroke:none"
           id="path166" /><path
           d="m -881.90986,1164.297 -3.34,1.051 24.26,76.101 3.34,-1.074 -24.26,-76.078"
           style="fill:#2e807a;fill-opacity:1;fill-rule:nonzero;stroke:none"
           id="path168" /><path
           d="m -824.63986,1198.73 -0.66,-0.273 -36.53,88.723 0.66,0.273 36.53,-88.723"
           style="fill:#2e807a;fill-opacity:1;fill-rule:nonzero;stroke:none"
           id="path170" /><path
           d="m -826.05986,1196.641 -37.58,91.297 3.23,1.335 37.58,-91.3 -3.23,-1.332"
           style="fill:#2e807a;fill-opacity:1;fill-rule:nonzero;stroke:none"
           id="path172" /><path
           d="m -841.10986,1109.371 -0.7,0.125 16.49,89.16 0.7,-0.129 -16.49,-89.156"
           style="fill:#2e807a;fill-opacity:1;fill-rule:nonzero;stroke:none"
           id="path174" /><path
           d="m -839.98986,1107.75 -3.44,0.633 16.99,91.898 3.44,-0.64 -16.99,-91.891"
           style="fill:#2e807a;fill-opacity:1;fill-rule:nonzero;stroke:none"
           id="path176" /><path
           d="m -842.15986,1293.719 c -3.11,-1.371 -6.74,0.035 -8.11,3.144 -1.37,3.106 0.03,6.739 3.14,8.11 3.11,1.367 6.74,-0.043 8.11,-3.149 1.37,-3.105 -0.04,-6.734 -3.14,-8.105"
           style="fill:#2e807a;fill-opacity:1;fill-rule:nonzero;stroke:none"
           id="path178" /><path
           d="m -844.65986,1304.102 c -0.64,0 -1.29,-0.129 -1.91,-0.407 -2.4,-1.054 -3.49,-3.871 -2.43,-6.269 1.06,-2.403 3.87,-3.492 6.28,-2.434 2.39,1.059 3.48,3.871 2.43,6.274 -0.79,1.777 -2.54,2.836 -4.37,2.836 z m 0.03,-12.297 c -2.9,0 -5.67,1.679 -6.91,4.496 -1.68,3.804 0.05,8.265 3.85,9.941 3.81,1.68 8.26,-0.054 9.94,-3.851 1.68,-3.809 -0.06,-8.266 -3.85,-9.946 v 0 c -0.99,-0.433 -2.02,-0.64 -3.03,-0.64"
           style="fill:#2e807a;fill-opacity:1;fill-rule:nonzero;stroke:none"
           id="path180" /><path
           d="m -911.84986,1300.617 c -3.11,-1.371 -6.74,0.035 -8.11,3.145 -1.37,3.105 0.04,6.738 3.15,8.105 3.1,1.371 6.73,-0.035 8.11,-3.144 1.37,-3.106 -0.04,-6.735 -3.15,-8.106"
           style="fill:#2e807a;fill-opacity:1;fill-rule:nonzero;stroke:none"
           id="path182" /><path
           d="m -914.33986,1311 c -0.64,0 -1.29,-0.129 -1.91,-0.402 -1.16,-0.516 -2.06,-1.45 -2.52,-2.633 -0.46,-1.188 -0.43,-2.481 0.09,-3.641 1.05,-2.398 3.88,-3.476 6.27,-2.433 v 0 c 1.16,0.511 2.05,1.449 2.51,2.632 0.47,1.184 0.44,2.477 -0.08,3.641 -0.78,1.777 -2.53,2.836 -4.36,2.836 z m 0.02,-12.293 c -2.9,0 -5.67,1.676 -6.91,4.492 -0.81,1.844 -0.86,3.891 -0.13,5.77 0.73,1.879 2.14,3.363 3.99,4.176 3.79,1.675 8.26,-0.055 9.94,-3.856 1.68,-3.809 -0.05,-8.266 -3.86,-9.941 v 0 c -0.98,-0.434 -2.01,-0.637 -3.03,-0.637"
           style="fill:#2e807a;fill-opacity:1;fill-rule:nonzero;stroke:none"
           id="path184" /><path
           d="m -862.14986,1282.121 c -3.11,-1.371 -6.74,0.035 -8.11,3.141 -1.37,3.109 0.04,6.738 3.15,8.109 3.1,1.371 6.73,-0.039 8.1,-3.144 1.37,-3.11 -0.04,-6.739 -3.14,-8.106"
           style="fill:#2e807a;fill-opacity:1;fill-rule:nonzero;stroke:none"
           id="path186" /><path
           d="m -864.62986,1292.504 c -0.66,0 -1.31,-0.137 -1.92,-0.406 -1.17,-0.512 -2.06,-1.45 -2.52,-2.633 -0.46,-1.184 -0.43,-2.477 0.08,-3.637 1.06,-2.402 3.9,-3.488 6.27,-2.437 v 0 c 2.41,1.058 3.5,3.875 2.44,6.277 -0.51,1.16 -1.45,2.055 -2.63,2.512 -0.56,0.215 -1.14,0.324 -1.72,0.324 z m 0.01,-12.301 c -2.9,0 -5.67,1.68 -6.91,4.5 -0.82,1.844 -0.86,3.891 -0.13,5.77 0.72,1.879 2.14,3.359 3.99,4.172 3.8,1.683 8.26,-0.055 9.94,-3.856 1.67,-3.805 -0.06,-8.266 -3.86,-9.941 v 0 c -0.99,-0.438 -2.02,-0.645 -3.03,-0.645"
           style="fill:#2e807a;fill-opacity:1;fill-rule:nonzero;stroke:none"
           id="path188" /><path
           d="m -793.85986,1259.316 c -3.11,-1.371 -6.74,0.036 -8.11,3.141 -1.37,3.109 0.04,6.738 3.15,8.109 3.1,1.372 6.74,-0.035 8.11,-3.144 1.37,-3.106 -0.04,-6.734 -3.15,-8.106"
           style="fill:#2e807a;fill-opacity:1;fill-rule:nonzero;stroke:none"
           id="path190" /><path
           d="m -796.33986,1269.699 c -0.65,0 -1.3,-0.133 -1.92,-0.406 -2.4,-1.059 -3.49,-3.871 -2.43,-6.273 0.51,-1.161 1.44,-2.055 2.63,-2.516 1.19,-0.453 2.47,-0.422 3.64,0.082 v 0 c 2.4,1.058 3.49,3.871 2.43,6.273 -0.78,1.778 -2.53,2.836 -4.35,2.836 z m 0,-12.301 c -0.92,0 -1.84,0.168 -2.73,0.512 -1.88,0.731 -3.36,2.149 -4.17,3.988 -1.68,3.805 0.05,8.262 3.85,9.938 3.81,1.687 8.27,-0.051 9.95,-3.848 1.68,-3.812 -0.06,-8.269 -3.86,-9.945 v 0 c -0.97,-0.43 -2,-0.645 -3.04,-0.645"
           style="fill:#2e807a;fill-opacity:1;fill-rule:nonzero;stroke:none"
           id="path192" /><path
           d="m -858.56986,1233.383 c -3.11,-1.371 -6.74,0.039 -8.11,3.144 -1.37,3.11 0.04,6.735 3.15,8.106 3.1,1.371 6.73,-0.035 8.11,-3.145 1.36,-3.105 -0.04,-6.734 -3.15,-8.105"
           style="fill:#2e807a;fill-opacity:1;fill-rule:nonzero;stroke:none"
           id="path194" /><path
           d="m -861.04986,1243.766 c -0.66,0 -1.31,-0.137 -1.92,-0.407 -2.4,-1.058 -3.49,-3.871 -2.43,-6.273 0.51,-1.16 1.44,-2.055 2.63,-2.512 1.18,-0.465 2.48,-0.433 3.64,0.078 v 0 c 1.16,0.512 2.05,1.446 2.51,2.633 0.46,1.184 0.43,2.477 -0.08,3.637 -0.51,1.164 -1.45,2.058 -2.63,2.515 -0.56,0.219 -1.14,0.325 -1.72,0.325 z m 0,-12.301 c -0.92,0 -1.85,0.172 -2.73,0.512 -1.88,0.73 -3.36,2.144 -4.17,3.988 -1.68,3.805 0.05,8.262 3.85,9.941 1.84,0.821 3.89,0.864 5.78,0.133 1.87,-0.73 3.36,-2.144 4.17,-3.992 0.81,-1.836 0.86,-3.887 0.13,-5.766 -0.73,-1.879 -2.15,-3.359 -3.99,-4.172 -0.98,-0.429 -2.01,-0.644 -3.04,-0.644"
           style="fill:#2e807a;fill-opacity:1;fill-rule:nonzero;stroke:none"
           id="path196" /><path
           d="m -947.21986,1246.477 c -3.11,-1.372 -6.74,0.039 -8.11,3.144 -1.37,3.109 0.04,6.734 3.15,8.106 3.1,1.371 6.74,-0.036 8.1,-3.145 1.37,-3.105 -0.04,-6.734 -3.14,-8.105"
           style="fill:#2e807a;fill-opacity:1;fill-rule:nonzero;stroke:none"
           id="path198" /><path
           d="m -949.69986,1256.859 c -0.66,0 -1.31,-0.132 -1.92,-0.402 -2.4,-1.059 -3.49,-3.875 -2.43,-6.277 1.05,-2.391 3.85,-3.481 6.27,-2.434 v 0 c 1.16,0.516 2.05,1.449 2.51,2.633 0.46,1.187 0.43,2.48 -0.08,3.644 -0.51,1.161 -1.44,2.055 -2.63,2.516 -0.56,0.215 -1.14,0.32 -1.72,0.32 z m 0.01,-12.296 c -2.9,0 -5.67,1.679 -6.91,4.496 -1.68,3.8 0.05,8.261 3.85,9.941 1.85,0.816 3.9,0.855 5.78,0.133 1.87,-0.731 3.35,-2.149 4.17,-3.988 0.81,-1.84 0.86,-3.891 0.13,-5.77 -0.73,-1.879 -2.15,-3.359 -3.99,-4.172 v 0 c -0.98,-0.429 -2.01,-0.636 -3.03,-0.636"
           style="fill:#2e807a;fill-opacity:1;fill-rule:nonzero;stroke:none"
           id="path200" /><path
           d="m -956.09986,1151.773 c -3.11,-1.375 -6.73,0.032 -8.11,3.141 -1.37,3.109 0.04,6.738 3.15,8.109 3.11,1.372 6.74,-0.039 8.11,-3.144 1.37,-3.109 -0.04,-6.734 -3.15,-8.106"
           style="fill:#2e807a;fill-opacity:1;fill-rule:nonzero;stroke:none"
           id="path202" /><path
           d="m -958.58986,1162.152 c -0.64,0 -1.29,-0.129 -1.91,-0.406 -1.16,-0.512 -2.06,-1.445 -2.51,-2.629 -0.46,-1.183 -0.44,-2.476 0.08,-3.64 0.51,-1.164 1.44,-2.055 2.63,-2.516 1.18,-0.457 2.48,-0.43 3.64,0.082 v 0 c 2.4,1.059 3.49,3.875 2.44,6.273 -0.79,1.778 -2.54,2.836 -4.37,2.836 z m 0.01,-12.3 c -0.92,0 -1.84,0.171 -2.73,0.515 -1.87,0.727 -3.36,2.145 -4.17,3.988 -0.81,1.84 -0.86,3.891 -0.13,5.766 0.73,1.879 2.14,3.359 3.99,4.172 3.81,1.684 8.27,-0.055 9.94,-3.852 1.68,-3.804 -0.06,-8.265 -3.86,-9.941 v 0 c -0.97,-0.434 -2,-0.648 -3.04,-0.648"
           style="fill:#2e807a;fill-opacity:1;fill-rule:nonzero;stroke:none"
           id="path204" /><path
           d="m -900.48986,1197.16 c -3.11,-1.371 -6.74,0.039 -8.11,3.145 -1.37,3.109 0.04,6.738 3.15,8.109 3.1,1.371 6.73,-0.035 8.1,-3.144 1.37,-3.106 -0.03,-6.739 -3.14,-8.11"
           style="fill:#2e807a;fill-opacity:1;fill-rule:nonzero;stroke:none"
           id="path206" /><path
           d="m -902.97986,1207.547 c -0.65,0 -1.3,-0.133 -1.91,-0.402 -1.17,-0.516 -2.06,-1.45 -2.52,-2.637 -0.46,-1.184 -0.43,-2.477 0.08,-3.641 0.52,-1.16 1.45,-2.054 2.64,-2.515 1.18,-0.461 2.48,-0.43 3.64,0.082 v 0 c 1.16,0.511 2.05,1.449 2.51,2.632 0.46,1.188 0.43,2.481 -0.08,3.641 -0.51,1.164 -1.45,2.059 -2.63,2.516 -0.56,0.215 -1.14,0.324 -1.73,0.324 z m 0.01,-12.305 c -0.92,0 -1.85,0.172 -2.73,0.516 -1.88,0.726 -3.36,2.144 -4.17,3.984 -0.81,1.848 -0.86,3.895 -0.13,5.774 0.73,1.879 2.14,3.359 3.99,4.172 3.8,1.683 8.26,-0.055 9.93,-3.856 0.82,-1.844 0.86,-3.891 0.14,-5.769 -0.73,-1.879 -2.15,-3.36 -3.99,-4.172 v 0 c -0.97,-0.434 -2.01,-0.649 -3.04,-0.649"
           style="fill:#2e807a;fill-opacity:1;fill-rule:nonzero;stroke:none"
           id="path208" /><path
           d="m -881.76986,1162.875 c -3.11,-1.371 -6.74,0.035 -8.1,3.141 -1.38,3.109 0.03,6.738 3.14,8.109 3.11,1.371 6.73,-0.039 8.11,-3.148 1.36,-3.102 -0.04,-6.731 -3.15,-8.102"
           style="fill:#2e807a;fill-opacity:1;fill-rule:nonzero;stroke:none"
           id="path210" /><path
           d="m -884.25986,1173.258 c -0.64,0 -1.29,-0.129 -1.91,-0.403 -1.16,-0.515 -2.05,-1.449 -2.52,-2.636 -0.46,-1.184 -0.43,-2.477 0.09,-3.641 0.51,-1.16 1.45,-2.055 2.63,-2.515 1.19,-0.454 2.47,-0.43 3.64,0.082 v 0 c 2.4,1.058 3.49,3.875 2.43,6.273 -0.78,1.777 -2.53,2.84 -4.36,2.84 z m 0.01,-12.305 c -0.92,0 -1.84,0.172 -2.73,0.516 -1.88,0.73 -3.36,2.14 -4.17,3.984 -0.81,1.848 -0.86,3.895 -0.13,5.777 0.73,1.875 2.14,3.356 3.99,4.168 3.8,1.676 8.26,-0.05 9.94,-3.855 1.67,-3.805 -0.06,-8.266 -3.86,-9.941 v 0 c -0.97,-0.43 -2,-0.649 -3.04,-0.649"
           style="fill:#2e807a;fill-opacity:1;fill-rule:nonzero;stroke:none"
           id="path212" /><path
           d="m -918.22986,1125.961 c -3.11,-1.371 -6.74,0.039 -8.11,3.144 -1.37,3.11 0.04,6.735 3.15,8.106 3.1,1.371 6.73,-0.035 8.1,-3.145 1.37,-3.105 -0.04,-6.734 -3.14,-8.105"
           style="fill:#2e807a;fill-opacity:1;fill-rule:nonzero;stroke:none"
           id="path214" /><path
           d="m -920.70986,1136.348 c -0.65,0 -1.31,-0.137 -1.92,-0.407 -1.17,-0.515 -2.06,-1.449 -2.52,-2.636 -0.46,-1.18 -0.43,-2.473 0.09,-3.641 1.05,-2.394 3.87,-3.476 6.27,-2.43 v 0 c 1.16,0.512 2.05,1.446 2.51,2.633 0.46,1.184 0.43,2.477 -0.08,3.637 -0.51,1.168 -1.45,2.059 -2.63,2.519 -0.56,0.215 -1.14,0.325 -1.72,0.325 z m 0.01,-12.301 c -2.9,0 -5.67,1.68 -6.91,4.496 -0.81,1.844 -0.86,3.895 -0.13,5.773 0.73,1.875 2.14,3.356 3.99,4.168 1.83,0.813 3.88,0.86 5.76,0.133 1.88,-0.73 3.36,-2.144 4.18,-3.988 0.81,-1.84 0.86,-3.891 0.13,-5.77 -0.73,-1.875 -2.15,-3.355 -3.99,-4.171 v 0 c -0.99,-0.434 -2.02,-0.641 -3.03,-0.641"
           style="fill:#2e807a;fill-opacity:1;fill-rule:nonzero;stroke:none"
           id="path216" /><path
           d="m -839.37986,1107.469 c -3.11,-1.371 -6.74,0.039 -8.11,3.144 -1.37,3.106 0.04,6.735 3.15,8.106 3.1,1.371 6.73,-0.039 8.1,-3.145 1.37,-3.105 -0.04,-6.734 -3.14,-8.105"
           style="fill:#2e807a;fill-opacity:1;fill-rule:nonzero;stroke:none"
           id="path218" /><path
           d="m -841.85986,1117.852 c -0.66,0 -1.31,-0.137 -1.92,-0.407 -1.17,-0.515 -2.06,-1.445 -2.52,-2.632 -0.46,-1.184 -0.43,-2.477 0.08,-3.637 1.06,-2.399 3.87,-3.488 6.28,-2.434 2.39,1.063 3.49,3.875 2.43,6.27 -0.52,1.164 -1.45,2.058 -2.63,2.515 -0.56,0.215 -1.14,0.325 -1.72,0.325 z m 0.01,-12.297 c -2.9,0 -5.67,1.679 -6.91,4.496 -0.82,1.844 -0.86,3.89 -0.14,5.769 0.73,1.875 2.15,3.36 3.99,4.172 1.84,0.813 3.89,0.863 5.77,0.129 1.88,-0.726 3.36,-2.141 4.17,-3.984 1.68,-3.801 -0.05,-8.262 -3.85,-9.942 v 0 c -0.99,-0.433 -2.02,-0.64 -3.03,-0.64"
           style="fill:#2e807a;fill-opacity:1;fill-rule:nonzero;stroke:none"
           id="path220" /><path
           d="m -823.09986,1191.316 c -3.11,-1.371 -6.74,0.036 -8.11,3.145 -1.37,3.105 0.04,6.734 3.15,8.105 3.11,1.372 6.74,-0.039 8.11,-3.144 1.37,-3.109 -0.04,-6.734 -3.15,-8.106"
           style="fill:#2e807a;fill-opacity:1;fill-rule:nonzero;stroke:none"
           id="path222" /><path
           d="m -825.57986,1201.703 c -0.65,0 -1.3,-0.14 -1.92,-0.406 -1.16,-0.516 -2.05,-1.449 -2.51,-2.637 -0.47,-1.183 -0.44,-2.476 0.07,-3.637 0.52,-1.164 1.45,-2.058 2.64,-2.515 1.19,-0.465 2.48,-0.438 3.64,0.082 v 0 c 1.16,0.512 2.06,1.445 2.52,2.633 0.45,1.183 0.43,2.472 -0.09,3.636 -0.51,1.164 -1.44,2.059 -2.63,2.516 -0.56,0.219 -1.14,0.328 -1.72,0.328 z m 0,-12.305 c -0.92,0 -1.84,0.172 -2.73,0.512 -1.88,0.731 -3.36,2.145 -4.17,3.988 -1.68,3.805 0.05,8.262 3.86,9.942 1.84,0.824 3.88,0.859 5.77,0.133 1.88,-0.731 3.36,-2.149 4.17,-3.993 0.81,-1.839 0.86,-3.89 0.13,-5.765 -0.73,-1.875 -2.14,-3.36 -3.99,-4.172 v 0 c -0.97,-0.43 -2,-0.645 -3.04,-0.645"
           style="fill:#2e807a;fill-opacity:1;fill-rule:nonzero;stroke:none"
           id="path224" /><path
           d="m -785.31986,1188.063 c -3.11,-1.372 -6.74,0.039 -8.11,3.144 -1.37,3.106 0.04,6.738 3.14,8.106 3.11,1.371 6.74,-0.036 8.11,-3.145 1.37,-3.105 -0.04,-6.734 -3.14,-8.105"
           style="fill:#2e807a;fill-opacity:1;fill-rule:nonzero;stroke:none"
           id="path226" /><path
           d="m -787.80986,1198.445 c -0.64,0 -1.29,-0.129 -1.91,-0.402 -1.17,-0.516 -2.06,-1.449 -2.52,-2.633 -0.46,-1.187 -0.43,-2.48 0.08,-3.644 0.52,-1.161 1.45,-2.051 2.64,-2.512 1.18,-0.461 2.47,-0.434 3.63,0.082 v 0 c 2.4,1.059 3.5,3.871 2.44,6.269 -0.78,1.778 -2.53,2.84 -4.36,2.84 z m 0.01,-12.3 c -0.92,0 -1.85,0.171 -2.73,0.511 -1.88,0.731 -3.36,2.145 -4.17,3.985 -0.82,1.847 -0.86,3.894 -0.13,5.773 0.72,1.879 2.14,3.363 3.99,4.176 3.79,1.672 8.25,-0.055 9.94,-3.86 1.67,-3.804 -0.06,-8.261 -3.86,-9.937 v 0 c -0.98,-0.434 -2.01,-0.648 -3.04,-0.648"
           style="fill:#2e807a;fill-opacity:1;fill-rule:nonzero;stroke:none"
           id="path228" /><path
           d="m -766.03986,1197.465 c -3.11,-1.371 -6.74,0.035 -8.11,3.144 -1.37,3.106 0.04,6.739 3.15,8.106 3.1,1.375 6.73,-0.039 8.11,-3.145 1.36,-3.105 -0.04,-6.734 -3.15,-8.105"
           style="fill:#2e807a;fill-opacity:1;fill-rule:nonzero;stroke:none"
           id="path230" /><path
           d="m -768.52986,1207.848 c -0.64,0 -1.29,-0.129 -1.91,-0.403 -2.4,-1.062 -3.49,-3.875 -2.43,-6.273 0.51,-1.164 1.44,-2.059 2.63,-2.52 1.18,-0.457 2.49,-0.422 3.64,0.086 v 0 c 1.16,0.512 2.06,1.45 2.51,2.629 0.46,1.188 0.43,2.481 -0.08,3.641 -0.79,1.781 -2.53,2.84 -4.36,2.84 z m 0.01,-12.301 c -0.92,0 -1.84,0.172 -2.73,0.516 -1.88,0.726 -3.36,2.144 -4.17,3.984 -1.68,3.808 0.05,8.266 3.86,9.945 3.79,1.68 8.26,-0.058 9.94,-3.859 0.81,-1.844 0.86,-3.895 0.13,-5.77 -0.73,-1.875 -2.14,-3.355 -3.99,-4.168 v 0 c -0.97,-0.433 -2.01,-0.648 -3.04,-0.648"
           style="fill:#2e807a;fill-opacity:1;fill-rule:nonzero;stroke:none"
           id="path232" /><path
           d="m -770.66986,1135.82 c -3.11,-1.367 -6.74,0.043 -8.11,3.145 -1.37,3.109 0.04,6.742 3.15,8.113 3.11,1.371 6.73,-0.039 8.1,-3.148 1.37,-3.106 -0.03,-6.739 -3.14,-8.11"
           style="fill:#2e807a;fill-opacity:1;fill-rule:nonzero;stroke:none"
           id="path234" /><path
           d="m -773.15986,1146.211 c -0.64,0 -1.29,-0.133 -1.91,-0.406 -2.4,-1.063 -3.49,-3.875 -2.44,-6.278 1.06,-2.398 3.88,-3.492 6.28,-2.433 v 0 c 1.16,0.511 2.06,1.445 2.51,2.629 0.46,1.187 0.43,2.476 -0.08,3.64 -0.78,1.778 -2.53,2.844 -4.36,2.844 z m 0.02,-12.301 c -2.9,0 -5.67,1.68 -6.91,4.492 -1.68,3.809 0.05,8.27 3.86,9.95 3.81,1.679 8.26,-0.055 9.94,-3.86 0.81,-1.847 0.86,-3.89 0.13,-5.769 -0.73,-1.879 -2.15,-3.364 -3.99,-4.172 v 0 c -0.99,-0.438 -2.02,-0.641 -3.03,-0.641"
           style="fill:#2e807a;fill-opacity:1;fill-rule:nonzero;stroke:none"
           id="path236" /><path
           d="m -808.26986,1082.34 c -3.11,-1.371 -6.74,0.035 -8.11,3.144 -1.37,3.106 0.04,6.735 3.15,8.106 3.1,1.371 6.74,-0.039 8.1,-3.145 1.38,-3.105 -0.03,-6.734 -3.14,-8.105"
           style="fill:#2e807a;fill-opacity:1;fill-rule:nonzero;stroke:none"
           id="path238" /><path
           d="m -810.75986,1092.723 c -0.64,0 -1.29,-0.133 -1.91,-0.407 -2.4,-1.058 -3.5,-3.871 -2.44,-6.269 1.06,-2.402 3.88,-3.488 6.28,-2.438 v 0 c 2.4,1.059 3.49,3.875 2.43,6.278 -0.78,1.773 -2.53,2.836 -4.36,2.836 z m 0.02,-12.297 c -2.9,0 -5.67,1.679 -6.91,4.496 -1.68,3.801 0.05,8.262 3.85,9.941 3.81,1.684 8.27,-0.054 9.95,-3.855 1.67,-3.801 -0.06,-8.266 -3.86,-9.942 v 0 c -0.99,-0.433 -2.02,-0.64 -3.03,-0.64"
           style="fill:#2e807a;fill-opacity:1;fill-rule:nonzero;stroke:none"
           id="path240" /><path
           d="m -860.79986,1056.699 c -3.11,-1.371 -6.75,0.039 -8.11,3.145 -1.37,3.105 0.03,6.738 3.14,8.109 3.11,1.367 6.74,-0.039 8.11,-3.144 1.37,-3.106 -0.04,-6.739 -3.14,-8.11"
           style="fill:#2e807a;fill-opacity:1;fill-rule:nonzero;stroke:none"
           id="path242" /><path
           d="m -863.28986,1067.082 c -0.64,0 -1.29,-0.133 -1.92,-0.402 -2.39,-1.059 -3.49,-3.871 -2.43,-6.278 1.06,-2.398 3.87,-3.476 6.27,-2.433 v 0 c 2.4,1.062 3.5,3.875 2.44,6.277 -0.79,1.777 -2.54,2.836 -4.36,2.836 z m 0.01,-12.297 c -2.9,0 -5.66,1.68 -6.91,4.496 -1.67,3.809 0.06,8.27 3.86,9.946 3.79,1.671 8.26,-0.055 9.94,-3.856 1.68,-3.805 -0.05,-8.266 -3.85,-9.945 h -0.01 c -0.98,-0.434 -2.01,-0.641 -3.03,-0.641"
           style="fill:#2e807a;fill-opacity:1;fill-rule:nonzero;stroke:none"
           id="path244" /><path
           d="m -928.59986,1059.25 c -3.11,-1.371 -6.74,0.035 -8.11,3.145 -1.36,3.105 0.04,6.734 3.15,8.105 3.11,1.375 6.74,-0.039 8.11,-3.145 1.37,-3.109 -0.04,-6.734 -3.15,-8.105"
           style="fill:#2e807a;fill-opacity:1;fill-rule:nonzero;stroke:none"
           id="path246" /><path
           d="m -931.07986,1069.633 c -0.65,0 -1.3,-0.129 -1.92,-0.403 -2.4,-1.062 -3.49,-3.875 -2.43,-6.277 1.05,-2.402 3.87,-3.492 6.27,-2.43 v 0 c 1.16,0.512 2.06,1.446 2.52,2.633 0.46,1.184 0.43,2.477 -0.09,3.641 -0.78,1.777 -2.53,2.836 -4.35,2.836 z m 0,-12.301 c -0.92,0 -1.84,0.172 -2.73,0.512 -1.88,0.73 -3.36,2.144 -4.17,3.988 -1.68,3.809 0.06,8.266 3.86,9.941 3.8,1.68 8.26,-0.046 9.94,-3.855 0.81,-1.844 0.86,-3.895 0.13,-5.77 -0.73,-1.875 -2.14,-3.355 -3.99,-4.171 v 0 c -0.97,-0.43 -2,-0.645 -3.04,-0.645"
           style="fill:#2e807a;fill-opacity:1;fill-rule:nonzero;stroke:none"
           id="path248" /><path
           d="m -983.52986,1096.906 c -3.11,-1.371 -6.74,0.035 -8.11,3.145 -1.37,3.105 0.04,6.738 3.14,8.105 3.11,1.371 6.74,-0.035 8.11,-3.144 1.37,-3.11 -0.04,-6.739 -3.14,-8.106"
           style="fill:#2e807a;fill-opacity:1;fill-rule:nonzero;stroke:none"
           id="path250" /><path
           d="m -986.00986,1107.293 c -0.66,0 -1.31,-0.137 -1.92,-0.41 -2.4,-1.059 -3.5,-3.871 -2.44,-6.274 0.51,-1.164 1.45,-2.054 2.63,-2.515 1.18,-0.453 2.49,-0.434 3.65,0.086 v 0 c 1.16,0.511 2.05,1.445 2.51,2.633 0.46,1.183 0.43,2.476 -0.08,3.636 -0.52,1.164 -1.45,2.059 -2.64,2.52 -0.55,0.215 -1.13,0.324 -1.71,0.324 z m -0.01,-12.305 c -0.92,0 -1.84,0.172 -2.72,0.512 -1.88,0.73 -3.36,2.145 -4.18,3.988 -1.67,3.809 0.06,8.262 3.86,9.942 1.85,0.816 3.89,0.859 5.77,0.133 1.88,-0.731 3.36,-2.145 4.17,-3.993 0.82,-1.84 0.87,-3.886 0.14,-5.761 -0.73,-1.879 -2.15,-3.364 -3.99,-4.176 -0.98,-0.43 -2.01,-0.645 -3.05,-0.645"
           style="fill:#2e807a;fill-opacity:1;fill-rule:nonzero;stroke:none"
           id="path252" /><path
           d="m -1008.9299,1152.16 c -3.11,-1.371 -6.74,0.035 -8.11,3.141 -1.37,3.109 0.04,6.742 3.15,8.113 3.1,1.367 6.73,-0.043 8.1,-3.148 1.37,-3.106 -0.04,-6.735 -3.14,-8.106"
           style="fill:#2e807a;fill-opacity:1;fill-rule:nonzero;stroke:none"
           id="path254" /><path
           d="m -1011.4199,1162.543 c -0.64,0 -1.29,-0.129 -1.91,-0.402 -2.4,-1.063 -3.5,-3.875 -2.44,-6.278 0.52,-1.164 1.45,-2.054 2.64,-2.511 1.18,-0.465 2.48,-0.43 3.64,0.082 2.39,1.058 3.49,3.871 2.43,6.269 -0.79,1.777 -2.53,2.84 -4.36,2.84 z m 0.02,-12.297 c -2.9,0 -5.67,1.68 -6.91,4.492 -1.68,3.805 0.05,8.266 3.85,9.946 3.82,1.679 8.26,-0.051 9.95,-3.86 1.67,-3.801 -0.06,-8.258 -3.86,-9.937 -0.99,-0.438 -2.02,-0.641 -3.03,-0.641"
           style="fill:#2e807a;fill-opacity:1;fill-rule:nonzero;stroke:none"
           id="path256" /><path
           d="m -1007.1999,1216.754 c -3.11,-1.371 -6.74,0.035 -8.11,3.144 -1.37,3.11 0.04,6.735 3.15,8.11 3.11,1.367 6.74,-0.039 8.11,-3.149 1.37,-3.105 -0.04,-6.734 -3.15,-8.105"
           style="fill:#2e807a;fill-opacity:1;fill-rule:nonzero;stroke:none"
           id="path258" /><path
           d="m -1009.6899,1227.137 c -0.64,0 -1.29,-0.129 -1.91,-0.403 -2.4,-1.062 -3.49,-3.879 -2.43,-6.277 1.05,-2.394 3.87,-3.488 6.27,-2.43 v 0 c 1.16,0.512 2.06,1.45 2.52,2.633 0.45,1.188 0.42,2.477 -0.09,3.637 -0.78,1.777 -2.53,2.84 -4.36,2.84 z m 0.02,-12.297 c -2.9,0 -5.66,1.68 -6.91,4.492 -1.67,3.805 0.06,8.266 3.86,9.945 3.8,1.684 8.26,-0.054 9.94,-3.859 0.81,-1.836 0.86,-3.883 0.13,-5.762 -0.72,-1.879 -2.14,-3.359 -3.99,-4.176 v 0 c -0.98,-0.433 -2.01,-0.64 -3.03,-0.64"
           style="fill:#2e807a;fill-opacity:1;fill-rule:nonzero;stroke:none"
           id="path260" /><path
           d="m -966.79986,1274.484 c -3.1,-1.371 -6.73,0.039 -8.11,3.145 -1.37,3.109 0.05,6.734 3.15,8.105 3.11,1.371 6.74,-0.035 8.11,-3.14 1.37,-3.11 -0.04,-6.742 -3.15,-8.11"
           style="fill:#2e807a;fill-opacity:1;fill-rule:nonzero;stroke:none"
           id="path262" /><path
           d="m -969.27986,1284.871 c -0.65,0 -1.3,-0.137 -1.91,-0.406 -1.17,-0.516 -2.06,-1.449 -2.52,-2.637 -0.46,-1.183 -0.44,-2.473 0.08,-3.637 1.06,-2.394 3.86,-3.48 6.27,-2.433 v 0 c 2.4,1.058 3.49,3.871 2.43,6.273 -0.51,1.164 -1.44,2.059 -2.63,2.516 -0.56,0.215 -1.14,0.324 -1.72,0.324 z m 0.01,-12.301 c -2.89,0 -5.66,1.68 -6.91,4.496 -0.81,1.844 -0.86,3.895 -0.13,5.774 0.73,1.875 2.15,3.355 3.99,4.168 1.84,0.812 3.88,0.863 5.77,0.133 1.87,-0.727 3.36,-2.141 4.17,-3.985 1.68,-3.808 -0.05,-8.269 -3.85,-9.945 h -0.01 c -0.98,-0.434 -2.01,-0.641 -3.03,-0.641"
           style="fill:#2e807a;fill-opacity:1;fill-rule:nonzero;stroke:none"
           id="path264" /><path
           d="m -883.95986,1168.891 -0.32,0.636 57.5,28.364 0.32,-0.641 -57.5,-28.359"
           style="fill:#2e807a;fill-opacity:1;fill-rule:nonzero;stroke:none"
           id="path266" /><path
           d="m -884.60986,1167.023 -1.52,3.145 59.99,29.586 1.54,-3.141 -60.01,-29.59"
           style="fill:#2e807a;fill-opacity:1;fill-rule:nonzero;stroke:none"
           id="path268" /><path
           d="m -775.18986,1143.617 -52.47,54.36 0.51,0.492 52.48,-54.364 -0.52,-0.488"
           style="fill:#2e807a;fill-opacity:1;fill-rule:nonzero;stroke:none"
           id="path270" /><path
           d="m -775.21986,1141.656 -54.41,56.356 2.51,2.422 54.42,-56.368 -2.52,-2.41"
           style="fill:#2e807a;fill-opacity:1;fill-rule:nonzero;stroke:none"
           id="path272" /><path
           d="m -863.80986,1065.063 -0.7,-0.129 -19,101.148 0.7,0.133 19,-101.152"
           style="fill:#2e807a;fill-opacity:1;fill-rule:nonzero;stroke:none"
           id="path274" /><path
           d="m -865.61986,1063.316 -19.52,103.875 3.44,0.653 19.51,-103.899 -3.43,-0.629"
           style="fill:#2e807a;fill-opacity:1;fill-rule:nonzero;stroke:none"
           id="path276" /><path
           d="m -732.27986,1375.188 c 0,-3.739 -3.03,-6.77 -6.77,-6.77 -3.74,0 -6.78,3.031 -6.78,6.77 0,3.742 3.04,6.773 6.78,6.773 3.74,0 6.77,-3.031 6.77,-6.773"
           style="fill:#2e807a;fill-opacity:1;fill-rule:nonzero;stroke:none"
           id="path278" /><path
           d="m -704.10986,1405.449 c 0,-3.738 -3.03,-6.769 -6.77,-6.769 -3.74,0 -6.77,3.031 -6.77,6.769 0,3.742 3.03,6.774 6.77,6.774 3.74,0 6.77,-3.032 6.77,-6.774"
           style="fill:#2e807a;fill-opacity:1;fill-rule:nonzero;stroke:none"
           id="path280" /><path
           d="m -735.06986,1439.539 c 0,-3.742 -3.03,-6.773 -6.77,-6.773 -3.74,0 -6.77,3.031 -6.77,6.773 0,3.738 3.03,6.77 6.77,6.77 3.74,0 6.77,-3.032 6.77,-6.77"
           style="fill:#2e807a;fill-opacity:1;fill-rule:nonzero;stroke:none"
           id="path282" /><path
           d="m -673.75986,1440.211 c 0,-3.738 -3.03,-6.77 -6.77,-6.77 -3.74,0 -6.77,3.032 -6.77,6.77 0,3.742 3.03,6.773 6.77,6.773 3.74,0 6.77,-3.031 6.77,-6.773"
           style="fill:#2e807a;fill-opacity:1;fill-rule:nonzero;stroke:none"
           id="path284" /><path
           d="m -704.10986,1436.129 c 0,-3.742 -3.03,-6.774 -6.77,-6.774 -3.74,0 -6.77,3.032 -6.77,6.774 0,3.738 3.03,6.769 6.77,6.769 3.74,0 6.77,-3.031 6.77,-6.769"
           style="fill:#2e807a;fill-opacity:1;fill-rule:nonzero;stroke:none"
           id="path286" /><path
           d="m -638.96986,1416.648 c 0,-3.738 -3.03,-6.769 -6.77,-6.769 -3.74,0 -6.78,3.031 -6.78,6.769 0,3.743 3.04,6.774 6.78,6.774 3.74,0 6.77,-3.031 6.77,-6.774"
           style="fill:#2e807a;fill-opacity:1;fill-rule:nonzero;stroke:none"
           id="path288" /><path
           d="m -612.39986,1436.324 c 0,-3.738 -3.04,-6.769 -6.78,-6.769 -3.74,0 -6.77,3.031 -6.77,6.769 0,3.742 3.03,6.774 6.77,6.774 3.74,0 6.78,-3.032 6.78,-6.774"
           style="fill:#2e807a;fill-opacity:1;fill-rule:nonzero;stroke:none"
           id="path290" /><path
           d="m -637.45986,1433.441 c 0,-3.742 -3.03,-6.773 -6.77,-6.773 -3.74,0 -6.77,3.031 -6.77,6.773 0,3.739 3.03,6.77 6.77,6.77 3.74,0 6.77,-3.031 6.77,-6.77"
           style="fill:#2e807a;fill-opacity:1;fill-rule:nonzero;stroke:none"
           id="path292" /><path
           d="m -608.37986,1391.906 c 0,-3.738 -3.03,-6.773 -6.77,-6.773 -3.74,0 -6.78,3.035 -6.78,6.773 0,3.739 3.04,6.774 6.78,6.774 3.74,0 6.77,-3.035 6.77,-6.774"
           style="fill:#2e807a;fill-opacity:1;fill-rule:nonzero;stroke:none"
           id="path294" /><path
           d="m -708.09986,1335.23 h -5.56 v 50.09 h -30.4 v 52.524 h 5.56 v -46.957 h 30.4 v -55.657"
           style="fill:#2e807a;fill-opacity:1;fill-rule:nonzero;stroke:none"
           id="path296" /><path
           d="m -710.87986,1349.145 h -30.96 v 26.046 h 5.57 v -20.48 h 25.39 v -5.566"
           style="fill:#2e807a;fill-opacity:1;fill-rule:nonzero;stroke:none"
           id="path298" /><path
           d="m -708.09986,1365.492 h -5.56 v 35.481 h 5.56 v -35.481"
           style="fill:#2e807a;fill-opacity:1;fill-rule:nonzero;stroke:none"
           id="path300" /><path
           d="m -695.70986,1335.23 h -5.57 v 54.09 h 17.97 v 46.809 h 5.57 v -52.375 h -17.97 v -48.524"
           style="fill:#2e807a;fill-opacity:1;fill-rule:nonzero;stroke:none"
           id="path302" /><path
           d="m -612.36986,1358.539 h -22.82 v 52.52 h 13.43 v 23.168 h 5.56 v -28.731 h -13.42 v -41.394 h 11.68 v 27.804 h 5.57 v -33.367"
           style="fill:#2e807a;fill-opacity:1;fill-rule:nonzero;stroke:none"
           id="path304" /><path
           d="m -682.48986,1335.23 h -5.57 v 38.961 h 21.22 v 62.817 h 22.61 v -5.563 h -17.05 v -62.82 h -21.21 v -33.395"
           style="fill:#2e807a;fill-opacity:1;fill-rule:nonzero;stroke:none"
           id="path306" /><path
           d="m -666.48986,1335.23 h -5.57 v 25.047 h 23.53 v 53.914 h 5.57 v -59.48 h -23.53 v -19.481"
           style="fill:#2e807a;fill-opacity:1;fill-rule:nonzero;stroke:none"
           id="path308" /><path
           d="m -654.72986,1335.23 h -5.56 v 14.364 h 5.56 v -14.364"
           style="fill:#2e807a;fill-opacity:1;fill-rule:nonzero;stroke:none"
           id="path310" /><path
           d="m -642.95986,1335.23 h -5.57 v 14.364 h 5.57 v -14.364"
           style="fill:#2e807a;fill-opacity:1;fill-rule:nonzero;stroke:none"
           id="path312" /><path
           d="m -631.18986,1335.23 h -5.56 v 19.481 h 24.54 v -5.566 h -18.98 v -13.915"
           style="fill:#2e807a;fill-opacity:1;fill-rule:nonzero;stroke:none"
           id="path314" /><path
           d="m -680.52986,1420.641 h -33.13 v 17.203 h 5.56 v -11.641 h 27.57 v -5.562"
           style="fill:#2e807a;fill-opacity:1;fill-rule:nonzero;stroke:none"
           id="path316" /><path
           d="m -649.73986,819.26197 h -51.55 l -0.39,116.797 v 0.156 l -0.15,52.941 -0.31,74.77003 -0.47,142.34 17.8,36.691 h 33.06 l 0.54,-109.215 0.31,-70.59 0.38,-74.14803 0.31,-66.645 0.39,-89.789 v -0.539 l 0.08,-12.769"
           style="fill:#2e807a;fill-opacity:1;fill-rule:nonzero;stroke:none"
           id="path318" /></g></g></g></svg>
